<?xml version="1.0" encoding="utf-8"?>
<!-- Generator: Adobe Illustrator 21.1.0, SVG Export Plug-In . SVG Version: 6.00 Build 0)  -->
<svg version="1.1" id="Layer_1" xmlns="http://www.w3.org/2000/svg" xmlns:xlink="http://www.w3.org/1999/xlink" x="0px" y="0px"
	 viewBox="0 0 55 91.6" style="enable-background:new 0 0 55 91.6;" xml:space="preserve">
<style type="text/css">
	.st0{fill:#006E9A;}
	.st1{fill:#00ADEE;}
</style>
<path class="st0" d="M28,91.6c-2.9-1.4-5.4-3.5-7.6-6c-2.2-2.5-3.9-5.6-5.1-8.9c-1.2-3.4-1.9-7.1-1.9-10.9c0-23,19.1-35.5,17-58.7
	c0-1.4-0.2-2.7-0.7-3.8C29.4,2,28.8,0.9,28,0c2.9,1.4,5.4,3.5,7.6,6c2.2,2.5,3.9,5.6,5.1,8.9c1.2,3.4,1.9,7.1,1.9,10.9
	c0,19.9-18.1,34.5-18.1,55.7c0,1.9,0.3,3.8,0.9,5.5C26.1,88.8,27,90.3,28,91.6"/>
<path class="st1" d="M45.2,90.3c-1.9-1-3.6-2.3-5.1-4c-1.4-1.7-2.6-3.7-3.4-6c-0.8-2.3-1.3-4.7-1.3-7.3c0-15.4,14.1-24.1,12-44
	c2.8,2.5,5,6.9,6.3,10c0.8,2.3,1.3,4.7,1.3,7.3c0,13.3-12.1,23.1-12.1,37.3c0,1.3,0.2,2.5,0.6,3.7C43.9,88.5,44.5,89.5,45.2,90.3"/>
<path class="st1" d="M9.8,64.2c-1.9-1-3.6-2.3-5.1-4c-1.4-1.7-2.6-3.7-3.4-6C0.4,51.9,0,49.4,0,46.8c0-15.4,14.1-24.1,12-44
	c2.8,2.5,5,6.9,6.3,10c0.8,2.3,1.3,4.7,1.3,7.3c0,13.3-12.1,23.1-12.1,37.3c0,1.3,0.2,2.5,0.6,3.7C8.5,62.3,9.1,63.3,9.8,64.2"/>
</svg>
